<mxfile host="app.diagrams.net" agent="Mozilla/5.0 (Windows NT 10.0; Win64; x64; rv:139.0) Gecko/20100101 Firefox/139.0" version="27.1.5">
  <diagram name="Page-1" id="3b-YO6R9CbqtQQC5maFo">
    <mxGraphModel dx="415" dy="1326" grid="1" gridSize="10" guides="1" tooltips="1" connect="1" arrows="1" fold="1" page="1" pageScale="1" pageWidth="850" pageHeight="1100" math="0" shadow="0">
      <root>
        <mxCell id="0" />
        <object label="Floor1" id="1">
          <mxCell parent="0" />
        </object>
        <mxCell id="WkyMA2TvoEqJpzh7w73O-1" value="" style="rounded=0;whiteSpace=wrap;html=1;opacity=50;rotation=90;" parent="1" vertex="1">
          <mxGeometry x="200" y="130" width="650" height="330" as="geometry" />
        </mxCell>
        <mxCell id="WkyMA2TvoEqJpzh7w73O-18" value="" style="rounded=0;whiteSpace=wrap;html=1;dashed=1;opacity=70;rotation=90;" parent="1" vertex="1">
          <mxGeometry x="625" y="305" width="30" height="40" as="geometry" />
        </mxCell>
        <mxCell id="WkyMA2TvoEqJpzh7w73O-17" value="" style="rounded=0;whiteSpace=wrap;html=1;dashed=1;opacity=70;rotation=90;" parent="1" vertex="1">
          <mxGeometry x="545" y="265" width="40" height="30" as="geometry" />
        </mxCell>
        <mxCell id="WkyMA2TvoEqJpzh7w73O-19" value="" style="rounded=0;whiteSpace=wrap;html=1;dashed=1;opacity=70;rotation=90;" parent="1" vertex="1">
          <mxGeometry x="465" y="305" width="30" height="40" as="geometry" />
        </mxCell>
        <mxCell id="WkyMA2TvoEqJpzh7w73O-23" value="" style="rounded=0;whiteSpace=wrap;html=1;dashed=1;opacity=70;rotation=90;" parent="1" vertex="1">
          <mxGeometry x="625" y="215" width="30" height="40" as="geometry" />
        </mxCell>
        <mxCell id="WkyMA2TvoEqJpzh7w73O-14" value="" style="ellipse;whiteSpace=wrap;html=1;fillColor=#008a00;fontColor=#ffffff;strokeColor=#005700;" parent="1" vertex="1">
          <mxGeometry x="390" y="270" width="20" height="20" as="geometry" />
        </mxCell>
        <mxCell id="H8jF1Rj0q_pbRdHzK7Fn-14" value="Floor1_walls" parent="0" />
        <mxCell id="H8jF1Rj0q_pbRdHzK7Fn-15" value="" style="rounded=0;whiteSpace=wrap;html=1;rotation=90;opacity=50;" vertex="1" parent="H8jF1Rj0q_pbRdHzK7Fn-14">
          <mxGeometry x="510" y="370" width="90" height="10" as="geometry" />
        </mxCell>
        <mxCell id="H8jF1Rj0q_pbRdHzK7Fn-16" value="" style="rounded=0;whiteSpace=wrap;html=1;rotation=90;opacity=50;" vertex="1" parent="H8jF1Rj0q_pbRdHzK7Fn-14">
          <mxGeometry x="500" y="510" width="110" height="10" as="geometry" />
        </mxCell>
        <mxCell id="H8jF1Rj0q_pbRdHzK7Fn-17" value="" style="rounded=0;whiteSpace=wrap;html=1;opacity=50;" vertex="1" parent="H8jF1Rj0q_pbRdHzK7Fn-14">
          <mxGeometry x="560" y="300" width="10" height="20" as="geometry" />
        </mxCell>
        <mxCell id="H8jF1Rj0q_pbRdHzK7Fn-18" value="" style="rounded=0;whiteSpace=wrap;html=1;opacity=50;" vertex="1" parent="H8jF1Rj0q_pbRdHzK7Fn-14">
          <mxGeometry x="560" y="240" width="10" height="20" as="geometry" />
        </mxCell>
        <mxCell id="H8jF1Rj0q_pbRdHzK7Fn-19" value="" style="rounded=0;whiteSpace=wrap;html=1;opacity=50;" vertex="1" parent="H8jF1Rj0q_pbRdHzK7Fn-14">
          <mxGeometry x="360" y="230" width="260" height="10" as="geometry" />
        </mxCell>
        <mxCell id="H8jF1Rj0q_pbRdHzK7Fn-20" value="" style="rounded=0;whiteSpace=wrap;html=1;opacity=50;" vertex="1" parent="H8jF1Rj0q_pbRdHzK7Fn-14">
          <mxGeometry x="660" y="230" width="20" height="10" as="geometry" />
        </mxCell>
        <mxCell id="H8jF1Rj0q_pbRdHzK7Fn-21" value="" style="rounded=0;whiteSpace=wrap;html=1;opacity=50;" vertex="1" parent="H8jF1Rj0q_pbRdHzK7Fn-14">
          <mxGeometry x="360" y="320" width="100" height="10" as="geometry" />
        </mxCell>
        <mxCell id="H8jF1Rj0q_pbRdHzK7Fn-22" value="" style="rounded=0;whiteSpace=wrap;html=1;opacity=50;" vertex="1" parent="H8jF1Rj0q_pbRdHzK7Fn-14">
          <mxGeometry x="500" y="320" width="120" height="10" as="geometry" />
        </mxCell>
        <mxCell id="H8jF1Rj0q_pbRdHzK7Fn-23" value="" style="rounded=0;whiteSpace=wrap;html=1;opacity=50;" vertex="1" parent="H8jF1Rj0q_pbRdHzK7Fn-14">
          <mxGeometry x="660" y="320" width="20" height="10" as="geometry" />
        </mxCell>
        <mxCell id="H8jF1Rj0q_pbRdHzK7Fn-24" value="" style="rounded=0;whiteSpace=wrap;html=1;opacity=50;" vertex="1" parent="H8jF1Rj0q_pbRdHzK7Fn-14">
          <mxGeometry x="680" y="-30" width="10" height="640" as="geometry" />
        </mxCell>
        <mxCell id="H8jF1Rj0q_pbRdHzK7Fn-25" value="" style="rounded=0;whiteSpace=wrap;html=1;opacity=50;" vertex="1" parent="H8jF1Rj0q_pbRdHzK7Fn-14">
          <mxGeometry x="420" y="330" width="10" height="280" as="geometry" />
        </mxCell>
        <mxCell id="H8jF1Rj0q_pbRdHzK7Fn-26" value="" style="rounded=0;whiteSpace=wrap;html=1;opacity=50;" vertex="1" parent="H8jF1Rj0q_pbRdHzK7Fn-14">
          <mxGeometry x="420" y="610" width="270" height="10" as="geometry" />
        </mxCell>
        <mxCell id="H8jF1Rj0q_pbRdHzK7Fn-27" value="" style="rounded=0;whiteSpace=wrap;html=1;opacity=50;" vertex="1" parent="H8jF1Rj0q_pbRdHzK7Fn-14">
          <mxGeometry x="590" y="-30" width="10" height="260" as="geometry" />
        </mxCell>
      </root>
    </mxGraphModel>
  </diagram>
</mxfile>
